<svg xmlns="http://www.w3.org/2000/svg" viewBox="0 0 128 128">
  <defs>
    <linearGradient id="g" x1="0" y1="0" x2="1" y2="1">
      <stop offset="0" stop-color="#60a5fa"/>
      <stop offset="1" stop-color="#2563eb"/>
    </linearGradient>
  </defs>
  <rect x="8" y="8" width="112" height="112" rx="24" fill="#0b1220"/>
  <rect x="18" y="18" width="92" height="92" rx="18" fill="url(#g)" opacity="0.18"/>
  <path d="M40 44h48a6 6 0 0 1 0 12H40a6 6 0 0 1 0-12Zm0 20h48a6 6 0 0 1 0 12H40a6 6 0 0 1 0-12Zm0 20h28a6 6 0 0 1 0 12H40a6 6 0 0 1 0-12Z" fill="#fff" opacity="0.92"/>
  <path d="M32 38a10 10 0 0 1 10-10h44a10 10 0 0 1 10 10v52a10 10 0 0 1-10 10H42a10 10 0 0 1-10-10V38Z" fill="none" stroke="#ffffff" stroke-opacity="0.35" stroke-width="4"/>
</svg>
